<svg xmlns="http://www.w3.org/2000/svg" width="1500" height="900" viewBox="0 0 1500 900" role="img" aria-labelledby="title desc">
  <title id="title">司南 COMPASS 技能生态图</title>
  <desc id="desc">中文 DAG，展示用户画像、需求对齐、任务森林和未来技能生态的关系。</desc>
  <defs>
    <marker id="arrow" markerWidth="11" markerHeight="11" refX="10" refY="4" orient="auto" markerUnits="strokeWidth">
      <path d="M0,0 L0,8 L11,4 z" fill="#334155"/>
    </marker>
    <style>
      .bg { fill: #f8fafc; }
      .panel { fill: #ffffff; stroke: #d8e2ee; stroke-width: 2; rx: 24; }
      .node { fill: #ffffff; stroke: #cbd5e1; stroke-width: 2.4; rx: 18; }
      .core { stroke: #2563eb; }
      .support { stroke: #0f766e; }
      .evolve { stroke: #d97706; }
      .title { font: 800 40px system-ui, -apple-system, BlinkMacSystemFont, "Segoe UI", sans-serif; fill: #0f172a; }
      .subtitle { font: 500 20px system-ui, -apple-system, BlinkMacSystemFont, "Segoe UI", sans-serif; fill: #475569; }
      .label { font: 750 24px system-ui, -apple-system, BlinkMacSystemFont, "Segoe UI", sans-serif; fill: #0f172a; }
      .small { font: 17px system-ui, -apple-system, BlinkMacSystemFont, "Segoe UI", sans-serif; fill: #475569; }
      .tag { font: 700 16px system-ui, -apple-system, BlinkMacSystemFont, "Segoe UI", sans-serif; fill: #0f172a; }
      .line { stroke: #334155; stroke-width: 3; fill: none; }
      .edge { stroke: #334155; stroke-width: 3; fill: none; marker-end: url(#arrow); }
      .soft { stroke: #64748b; stroke-dasharray: 9 8; }
      .blue { fill: #dbeafe; }
      .teal { fill: #ccfbf1; }
      .amber { fill: #fef3c7; }
    </style>
  </defs>

  <rect class="bg" width="1500" height="900"/>
  <text class="title" x="80" y="74">司南 COMPASS 技能生态</text>
  <text class="subtitle" x="80" y="112">理解用户、沉淀任务、对齐方向，并把真实运行历史变成持续进化的技能系统。</text>

  <rect class="panel" x="60" y="150" width="1380" height="680"/>

  <rect class="node core" x="110" y="215" width="330" height="150"/>
  <rect class="blue" x="138" y="240" width="82" height="32" rx="16"/>
  <text class="tag" x="162" y="262">知人</text>
  <text class="label" x="138" y="306">用户画像</text>
  <text class="small" x="138" y="334">user-profile-keeper</text>
  <text class="small" x="138" y="360">输出低敏协作摘要</text>

  <rect class="node core" x="585" y="215" width="330" height="150"/>
  <rect class="blue" x="613" y="240" width="82" height="32" rx="16"/>
  <text class="tag" x="637" y="262">知向</text>
  <text class="label" x="613" y="306">需求对齐</text>
  <text class="small" x="613" y="334">task-clarifier</text>
  <text class="small" x="613" y="360">形成可执行契约</text>

  <rect class="node core" x="1060" y="215" width="330" height="150"/>
  <rect class="blue" x="1088" y="240" width="82" height="32" rx="16"/>
  <text class="tag" x="1112" y="262">知事</text>
  <text class="label" x="1088" y="306">任务森林 / DAG</text>
  <text class="small" x="1088" y="334">task-forest</text>
  <text class="small" x="1088" y="360">目标、依赖、进度、偏差</text>

  <path class="edge soft" d="M440 290 L585 290"/>
  <path class="edge" d="M915 290 L1060 290"/>

  <path class="line" d="M1225 365 L1225 420 L250 420"/>
  <path class="edge" d="M250 420 L250 485"/>
  <path class="edge" d="M570 420 L570 485"/>
  <path class="edge" d="M890 420 L890 485"/>
  <path class="edge" d="M1210 420 L1210 485"/>

  <rect class="node support" x="100" y="485" width="300" height="120"/>
  <rect class="teal" x="128" y="507" width="92" height="30" rx="15"/>
  <text class="tag" x="155" y="528">续接</text>
  <text class="label" x="128" y="568">跨会话交接</text>
  <text class="small" x="128" y="594">session-handoff-prompt</text>

  <rect class="node support" x="420" y="485" width="300" height="120"/>
  <rect class="teal" x="448" y="507" width="92" height="30" rx="15"/>
  <text class="tag" x="467" y="528">控制室</text>
  <text class="label" x="448" y="568">本机代理控制室</text>
  <text class="small" x="448" y="594">多 agent 状态和风险</text>

  <rect class="node support" x="740" y="485" width="300" height="120"/>
  <rect class="teal" x="768" y="507" width="92" height="30" rx="15"/>
  <text class="tag" x="795" y="528">路由</text>
  <text class="label" x="768" y="568">等待间隙任务路由</text>
  <text class="small" x="768" y="594">低切换成本任务推荐</text>

  <rect class="node evolve" x="1060" y="485" width="330" height="120"/>
  <rect class="amber" x="1088" y="507" width="92" height="30" rx="15"/>
  <text class="tag" x="1115" y="528">进化</text>
  <text class="label" x="1088" y="568">运行历史技能进化</text>
  <text class="small" x="1088" y="594">builder / upgrader</text>

  <path class="line" d="M250 605 L250 670 L750 670"/>
  <path class="line" d="M570 605 L570 670"/>
  <path class="line" d="M890 605 L890 670"/>
  <path class="line" d="M1225 605 L1225 670 L750 670"/>
  <path class="edge" d="M750 670 L750 720"/>

  <rect class="node evolve" x="210" y="720" width="1080" height="78"/>
  <text class="label" x="250" y="752">未来生态：日报周报、任务调度、项目复盘、习惯与健康系统</text>
  <text class="small" x="250" y="780">由用户画像、任务森林、需求对齐和运行历史共同提供长期上下文</text>
</svg>
